{"asset": {"version": "2.0", "generator": "Blockbench 5.1.4 glTF exporter"}, "scenes": [{"nodes": [0, 1, 2, 3, 4, 5, 6, 7, 8, 9, 10, 11, 12], "name": "blockbench_export"}], "scene": 0, "nodes": [{"rotation": [0.0013507381615080695, 0.011000879520807218, -0.12186185772595462, 0.9924851856767267], "translation": [0.375, 0.062631228125, 0.0], "name": "bookcase_hero0", "mesh": 0, "scale": [0.9988002, 0.9988002, 0.9988002]}, {"rotation": [0, 0.0137771447567611, 0, 0.9999050906372821], "translation": [0.4375, 0.6626454326562499, 0.0], "name": "bookcase_hero1", "mesh": 1, "scale": [0.99867033, 0.99867033, 0.99867033]}, {"rotation": [0, 0.01815310813728891, 0, 0.9998352187560487], "translation": [0.375, 1.2439096371875, 0.0], "name": "bookcase_hero2", "mesh": 2, "scale": [0.99854046, 0.99854046, 0.99854046]}, {"name": "bookcase_run0", "mesh": 3, "scale": [0.99841059, 0.99841059, 0.99841059], "translation": [-7.450359374999908e-05, 0.00032284890624999604, 0.0]}, {"name": "bookcase_run1", "mesh": 4, "scale": [0.99828072, 0.99828072, 0.99828072], "translation": [-2.6863749999999145e-05, 0.0013270692909907863, 0.0]}, {"name": "bookcase_run2", "mesh": 5, "scale": [0.99815085, 0.99815085, 0.99815085], "translation": [-8.667890625000085e-05, 0.002502131049662853, 0.0]}, {"name": "bookcase_side_L", "mesh": 6, "scale": [0.9980209800000001, 0.9980209800000001, 0.9980209800000001], "translation": [-0.0009276656249999915, 0.001855331249999983, 0.0]}, {"name": "bookcase_side_R", "mesh": 7, "scale": [0.9978911100000001, 0.9978911100000001, 0.9978911100000001], "translation": [0.0009885421874999743, 0.0019770843749999487, 0.0]}, {"name": "bookcase_top", "mesh": 8, "scale": [0.99776124, 0.99776124, 0.99776124], "translation": [0.0, 0.004127713750000036, 0.0]}, {"name": "bookcase_bottom", "mesh": 9, "scale": [0.99763137, 0.99763137, 0.99763137], "translation": [0.0, 7.401968749999949e-05, 0.0]}, {"name": "bookcase_back", "mesh": 10, "scale": [0.9975015, 0.9975015, 0.9975015], "translation": [0.0, 0.00234234374999995, -0.00027327343749999417]}, {"name": "bookcase_shelf0", "mesh": 11, "scale": [0.99737163, 0.99737163, 0.99737163], "translation": [0.0, 0.0016591586251652375, 0.0]}, {"name": "bookcase_shelf1", "mesh": 12, "scale": [0.99724176, 0.99724176, 0.99724176], "translation": [0.0, 0.003344365934238415, 0.0]}], "bufferViews": [{"buffer": 0, "byteOffset": 0, "byteLength": 288, "target": 34962, "byteStride": 12}, {"buffer": 0, "byteOffset": 288, "byteLength": 288, "target": 34962, "byteStride": 12}, {"buffer": 0, "byteOffset": 576, "byteLength": 192, "target": 34962, "byteStride": 8}, {"buffer": 0, "byteOffset": 768, "byteLength": 72, "target": 34963}, {"buffer": 0, "byteOffset": 840, "byteLength": 288, "target": 34962, "byteStride": 12}, {"buffer": 0, "byteOffset": 1128, "byteLength": 288, "target": 34962, "byteStride": 12}, {"buffer": 0, "byteOffset": 1416, "byteLength": 192, "target": 34962, "byteStride": 8}, {"buffer": 0, "byteOffset": 1608, "byteLength": 72, "target": 34963}, {"buffer": 0, "byteOffset": 1680, "byteLength": 288, "target": 34962, "byteStride": 12}, {"buffer": 0, "byteOffset": 1968, "byteLength": 288, "target": 34962, "byteStride": 12}, {"buffer": 0, "byteOffset": 2256, "byteLength": 192, "target": 34962, "byteStride": 8}, {"buffer": 0, "byteOffset": 2448, "byteLength": 72, "target": 34963}, {"buffer": 0, "byteOffset": 2520, "byteLength": 288, "target": 34962, "byteStride": 12}, {"buffer": 0, "byteOffset": 2808, "byteLength": 288, "target": 34962, "byteStride": 12}, {"buffer": 0, "byteOffset": 3096, "byteLength": 192, "target": 34962, "byteStride": 8}, {"buffer": 0, "byteOffset": 3288, "byteLength": 72, "target": 34963}, {"buffer": 0, "byteOffset": 3360, "byteLength": 288, "target": 34962, "byteStride": 12}, {"buffer": 0, "byteOffset": 3648, "byteLength": 288, "target": 34962, "byteStride": 12}, {"buffer": 0, "byteOffset": 3936, "byteLength": 192, "target": 34962, "byteStride": 8}, {"buffer": 0, "byteOffset": 4128, "byteLength": 72, "target": 34963}, {"buffer": 0, "byteOffset": 4200, "byteLength": 288, "target": 34962, "byteStride": 12}, {"buffer": 0, "byteOffset": 4488, "byteLength": 288, "target": 34962, "byteStride": 12}, {"buffer": 0, "byteOffset": 4776, "byteLength": 192, "target": 34962, "byteStride": 8}, {"buffer": 0, "byteOffset": 4968, "byteLength": 72, "target": 34963}, {"buffer": 0, "byteOffset": 5040, "byteLength": 288, "target": 34962, "byteStride": 12}, {"buffer": 0, "byteOffset": 5328, "byteLength": 288, "target": 34962, "byteStride": 12}, {"buffer": 0, "byteOffset": 5616, "byteLength": 192, "target": 34962, "byteStride": 8}, {"buffer": 0, "byteOffset": 5808, "byteLength": 72, "target": 34963}, {"buffer": 0, "byteOffset": 5880, "byteLength": 288, "target": 34962, "byteStride": 12}, {"buffer": 0, "byteOffset": 6168, "byteLength": 288, "target": 34962, "byteStride": 12}, {"buffer": 0, "byteOffset": 6456, "byteLength": 192, "target": 34962, "byteStride": 8}, {"buffer": 0, "byteOffset": 6648, "byteLength": 72, "target": 34963}, {"buffer": 0, "byteOffset": 6720, "byteLength": 288, "target": 34962, "byteStride": 12}, {"buffer": 0, "byteOffset": 7008, "byteLength": 288, "target": 34962, "byteStride": 12}, {"buffer": 0, "byteOffset": 7296, "byteLength": 192, "target": 34962, "byteStride": 8}, {"buffer": 0, "byteOffset": 7488, "byteLength": 72, "target": 34963}, {"buffer": 0, "byteOffset": 7560, "byteLength": 288, "target": 34962, "byteStride": 12}, {"buffer": 0, "byteOffset": 7848, "byteLength": 288, "target": 34962, "byteStride": 12}, {"buffer": 0, "byteOffset": 8136, "byteLength": 192, "target": 34962, "byteStride": 8}, {"buffer": 0, "byteOffset": 8328, "byteLength": 72, "target": 34963}, {"buffer": 0, "byteOffset": 8400, "byteLength": 288, "target": 34962, "byteStride": 12}, {"buffer": 0, "byteOffset": 8688, "byteLength": 288, "target": 34962, "byteStride": 12}, {"buffer": 0, "byteOffset": 8976, "byteLength": 192, "target": 34962, "byteStride": 8}, {"buffer": 0, "byteOffset": 9168, "byteLength": 72, "target": 34963}, {"buffer": 0, "byteOffset": 9240, "byteLength": 288, "target": 34962, "byteStride": 12}, {"buffer": 0, "byteOffset": 9528, "byteLength": 288, "target": 34962, "byteStride": 12}, {"buffer": 0, "byteOffset": 9816, "byteLength": 192, "target": 34962, "byteStride": 8}, {"buffer": 0, "byteOffset": 10008, "byteLength": 72, "target": 34963}, {"buffer": 0, "byteOffset": 10080, "byteLength": 288, "target": 34962, "byteStride": 12}, {"buffer": 0, "byteOffset": 10368, "byteLength": 288, "target": 34962, "byteStride": 12}, {"buffer": 0, "byteOffset": 10656, "byteLength": 192, "target": 34962, "byteStride": 8}, {"buffer": 0, "byteOffset": 10848, "byteLength": 72, "target": 34963}], "buffers": [{"byteLength": 10920, "uri": "data:application/octet-stream;base64,"}], "accessors": [{"bufferView": 0, "componentType": 5126, "count": 24, "max": [0.03125, 0.21875, 0.078125], "min": [-0.03125, 0, -0.078125], "type": "VEC3"}, {"bufferView": 1, "componentType": 5126, "count": 24, "max": [1, 1, 1], "min": [-1, -1, -1], "type": "VEC3"}, {"bufferView": 2, "componentType": 5126, "count": 24, "max": [0.65625, 0.71875], "min": [0, 0], "type": "VEC2"}, {"bufferView": 3, "componentType": 5123, "count": 36, "max": [23], "min": [0], "type": "SCALAR"}, {"bufferView": 4, "componentType": 5126, "count": 24, "max": [0.03125, 0.21875, 0.078125], "min": [-0.03125, 0, -0.078125], "type": "VEC3"}, {"bufferView": 5, "componentType": 5126, "count": 24, "max": [1, 1, 1], "min": [-1, -1, -1], "type": "VEC3"}, {"bufferView": 6, "componentType": 5126, "count": 24, "max": [0.65625, 0.71875], "min": [0, 0], "type": "VEC2"}, {"bufferView": 7, "componentType": 5123, "count": 36, "max": [23], "min": [0], "type": "SCALAR"}, {"bufferView": 8, "componentType": 5126, "count": 24, "max": [0.015625, 0.21875, 0.078125], "min": [-0.015625, 0, -0.078125], "type": "VEC3"}, {"bufferView": 9, "componentType": 5126, "count": 24, "max": [1, 1, 1], "min": [-1, -1, -1], "type": "VEC3"}, {"bufferView": 10, "componentType": 5126, "count": 24, "max": [0.65625, 0.71875], "min": [0, 0], "type": "VEC2"}, {"bufferView": 11, "componentType": 5123, "count": 36, "max": [23], "min": [0], "type": "SCALAR"}, {"bufferView": 12, "componentType": 5126, "count": 24, "max": [0.3125, 0.34375, 0.109375], "min": [-0.40625, 0.0625, -0.109375], "type": "VEC3"}, {"bufferView": 13, "componentType": 5126, "count": 24, "max": [1, 1, 1], "min": [-1, -1, -1], "type": "VEC3"}, {"bufferView": 14, "componentType": 5126, "count": 24, "max": [1.21875, 0.96875], "min": [0, 0], "type": "VEC2"}, {"bufferView": 15, "componentType": 5123, "count": 36, "max": [23], "min": [0], "type": "SCALAR"}, {"bufferView": 16, "componentType": 5126, "count": 24, "max": [0.375, 0.8812500238418579, 0.109375], "min": [-0.40625, 0.6625000238418579, -0.109375], "type": "VEC3"}, {"bufferView": 17, "componentType": 5126, "count": 24, "max": [1, 1, 1], "min": [-1, -1, -1], "type": "VEC3"}, {"bufferView": 18, "componentType": 5126, "count": 24, "max": [1.28125, 0.96875], "min": [0, 0], "type": "VEC2"}, {"bufferView": 19, "componentType": 5123, "count": 36, "max": [23], "min": [0], "type": "SCALAR"}, {"bufferView": 20, "componentType": 5126, "count": 24, "max": [0.3125, 1.462499976158142, 0.109375], "min": [-0.40625, 1.243749976158142, -0.109375], "type": "VEC3"}, {"bufferView": 21, "componentType": 5126, "count": 24, "max": [1, 1, 1], "min": [-1, -1, -1], "type": "VEC3"}, {"bufferView": 22, "componentType": 5126, "count": 24, "max": [1.21875, 0.96875], "min": [0, 0], "type": "VEC2"}, {"bufferView": 23, "componentType": 5123, "count": 36, "max": [23], "min": [0], "type": "SCALAR"}, {"bufferView": 24, "componentType": 5126, "count": 24, "max": [-0.4375, 1.875, 0.125], "min": [-0.5, 0, -0.125], "type": "VEC3"}, {"bufferView": 25, "componentType": 5126, "count": 24, "max": [1, 1, 1], "min": [-1, -1, -1], "type": "VEC3"}, {"bufferView": 26, "componentType": 5126, "count": 24, "max": [0.5, 1], "min": [0, 0], "type": "VEC2"}, {"bufferView": 27, "componentType": 5123, "count": 36, "max": [23], "min": [0], "type": "SCALAR"}, {"bufferView": 28, "componentType": 5126, "count": 24, "max": [0.5, 1.875, 0.125], "min": [0.4375, 0, -0.125], "type": "VEC3"}, {"bufferView": 29, "componentType": 5126, "count": 24, "max": [1, 1, 1], "min": [-1, -1, -1], "type": "VEC3"}, {"bufferView": 30, "componentType": 5126, "count": 24, "max": [0.5, 1], "min": [0, 0], "type": "VEC2"}, {"bufferView": 31, "componentType": 5123, "count": 36, "max": [23], "min": [0], "type": "SCALAR"}, {"bufferView": 32, "componentType": 5126, "count": 24, "max": [0.5, 1.875, 0.125], "min": [-0.5, 1.8125, -0.125], "type": "VEC3"}, {"bufferView": 33, "componentType": 5126, "count": 24, "max": [1, 1, 1], "min": [-1, -1, -1], "type": "VEC3"}, {"bufferView": 34, "componentType": 5126, "count": 24, "max": [1, 1], "min": [0.5, 0], "type": "VEC2"}, {"bufferView": 35, "componentType": 5123, "count": 36, "max": [23], "min": [0], "type": "SCALAR"}, {"bufferView": 36, "componentType": 5126, "count": 24, "max": [0.5, 0.0625, 0.125], "min": [-0.5, 0, -0.125], "type": "VEC3"}, {"bufferView": 37, "componentType": 5126, "count": 24, "max": [1, 1, 1], "min": [-1, -1, -1], "type": "VEC3"}, {"bufferView": 38, "componentType": 5126, "count": 24, "max": [1, 1], "min": [0.5, 0], "type": "VEC2"}, {"bufferView": 39, "componentType": 5123, "count": 36, "max": [23], "min": [0], "type": "SCALAR"}, {"bufferView": 40, "componentType": 5126, "count": 24, "max": [0.5, 1.875, -0.09375], "min": [-0.5, 0, -0.125], "type": "VEC3"}, {"bufferView": 41, "componentType": 5126, "count": 24, "max": [1, 1, 1], "min": [-1, -1, -1], "type": "VEC3"}, {"bufferView": 42, "componentType": 5126, "count": 24, "max": [0.5, 1], "min": [0, 0], "type": "VEC2"}, {"bufferView": 43, "componentType": 5123, "count": 36, "max": [23], "min": [0], "type": "SCALAR"}, {"bufferView": 44, "componentType": 5126, "count": 24, "max": [0.4375, 0.6625000238418579, 0.125], "min": [-0.4375, 0.6000000238418579, -0.125], "type": "VEC3"}, {"bufferView": 45, "componentType": 5126, "count": 24, "max": [1, 1, 1], "min": [-1, -1, -1], "type": "VEC3"}, {"bufferView": 46, "componentType": 5126, "count": 24, "max": [1, 1], "min": [0.5, 0], "type": "VEC2"}, {"bufferView": 47, "componentType": 5123, "count": 36, "max": [23], "min": [0], "type": "SCALAR"}, {"bufferView": 48, "componentType": 5126, "count": 24, "max": [0.4375, 1.243749976158142, 0.125], "min": [-0.4375, 1.181249976158142, -0.125], "type": "VEC3"}, {"bufferView": 49, "componentType": 5126, "count": 24, "max": [1, 1, 1], "min": [-1, -1, -1], "type": "VEC3"}, {"bufferView": 50, "componentType": 5126, "count": 24, "max": [1, 1], "min": [0.5, 0], "type": "VEC2"}, {"bufferView": 51, "componentType": 5123, "count": 36, "max": [23], "min": [0], "type": "SCALAR"}], "materials": [{"pbrMetallicRoughness": {"metallicFactor": 0, "roughnessFactor": 1, "baseColorTexture": {"index": 0}}, "alphaMode": "OPAQUE", "doubleSided": true}, {"pbrMetallicRoughness": {"metallicFactor": 0, "roughnessFactor": 1, "baseColorTexture": {"index": 1}}, "alphaMode": "OPAQUE", "doubleSided": true}, {"pbrMetallicRoughness": {"metallicFactor": 0, "roughnessFactor": 1, "baseColorTexture": {"index": 2}}, "alphaMode": "OPAQUE", "doubleSided": true}, {"pbrMetallicRoughness": {"metallicFactor": 0, "roughnessFactor": 1, "baseColorTexture": {"index": 3}}, "alphaMode": "OPAQUE", "doubleSided": true}, {"pbrMetallicRoughness": {"metallicFactor": 0, "roughnessFactor": 1, "baseColorTexture": {"index": 4}}, "alphaMode": "OPAQUE", "doubleSided": true}, {"pbrMetallicRoughness": {"metallicFactor": 0, "roughnessFactor": 1, "baseColorTexture": {"index": 5}}, "alphaMode": "OPAQUE", "doubleSided": true}, {"pbrMetallicRoughness": {"metallicFactor": 0, "roughnessFactor": 1, "baseColorTexture": {"index": 6}}, "alphaMode": "OPAQUE", "doubleSided": true}], "textures": [{"sampler": 0, "source": 0, "name": "bookcase_hero0.png"}, {"sampler": 1, "source": 1, "name": "bookcase_hero1.png"}, {"sampler": 2, "source": 2, "name": "bookcase_hero2.png"}, {"sampler": 3, "source": 3, "name": "bookcase_run0.png"}, {"sampler": 4, "source": 4, "name": "bookcase_run1.png"}, {"sampler": 5, "source": 5, "name": "bookcase_run2.png"}, {"sampler": 6, "source": 6, "name": "oak_case.png"}], "samplers": [{"magFilter": 9728, "minFilter": 9728, "wrapS": 33071, "wrapT": 33071}, {"magFilter": 9728, "minFilter": 9728, "wrapS": 33071, "wrapT": 33071}, {"magFilter": 9728, "minFilter": 9728, "wrapS": 33071, "wrapT": 33071}, {"magFilter": 9728, "minFilter": 9728, "wrapS": 33071, "wrapT": 33071}, {"magFilter": 9728, "minFilter": 9728, "wrapS": 33071, "wrapT": 33071}, {"magFilter": 9728, "minFilter": 9728, "wrapS": 33071, "wrapT": 33071}, {"magFilter": 9728, "minFilter": 9728, "wrapS": 33071, "wrapT": 33071}], "images": [{"mimeType": "image/png", "uri": "data:image/png;base64,"}, {"mimeType": "image/png", "uri": "data:image/png;base64,"}, {"mimeType": "image/png", "uri": "data:image/png;base64,"}, {"mimeType": "image/png", "uri": "data:image/png;base64,"}, {"mimeType": "image/png", "uri": "data:image/png;base64,"}, {"mimeType": "image/png", "uri": "data:image/png;base64,"}, {"mimeType": "image/png", "uri": "data:image/png;base64,"}], "meshes": [{"primitives": [{"mode": 4, "attributes": {"POSITION": 0, "NORMAL": 1, "TEXCOORD_0": 2}, "indices": 3, "material": 0}]}, {"primitives": [{"mode": 4, "attributes": {"POSITION": 4, "NORMAL": 5, "TEXCOORD_0": 6}, "indices": 7, "material": 1}]}, {"primitives": [{"mode": 4, "attributes": {"POSITION": 8, "NORMAL": 9, "TEXCOORD_0": 10}, "indices": 11, "material": 2}]}, {"primitives": [{"mode": 4, "attributes": {"POSITION": 12, "NORMAL": 13, "TEXCOORD_0": 14}, "indices": 15, "material": 3}]}, {"primitives": [{"mode": 4, "attributes": {"POSITION": 16, "NORMAL": 17, "TEXCOORD_0": 18}, "indices": 19, "material": 4}]}, {"primitives": [{"mode": 4, "attributes": {"POSITION": 20, "NORMAL": 21, "TEXCOORD_0": 22}, "indices": 23, "material": 5}]}, {"primitives": [{"mode": 4, "attributes": {"POSITION": 24, "NORMAL": 25, "TEXCOORD_0": 26}, "indices": 27, "material": 6}]}, {"primitives": [{"mode": 4, "attributes": {"POSITION": 28, "NORMAL": 29, "TEXCOORD_0": 30}, "indices": 31, "material": 6}]}, {"primitives": [{"mode": 4, "attributes": {"POSITION": 32, "NORMAL": 33, "TEXCOORD_0": 34}, "indices": 35, "material": 6}]}, {"primitives": [{"mode": 4, "attributes": {"POSITION": 36, "NORMAL": 37, "TEXCOORD_0": 38}, "indices": 39, "material": 6}]}, {"primitives": [{"mode": 4, "attributes": {"POSITION": 40, "NORMAL": 41, "TEXCOORD_0": 42}, "indices": 43, "material": 6}]}, {"primitives": [{"mode": 4, "attributes": {"POSITION": 44, "NORMAL": 45, "TEXCOORD_0": 46}, "indices": 47, "material": 6}]}, {"primitives": [{"mode": 4, "attributes": {"POSITION": 48, "NORMAL": 49, "TEXCOORD_0": 50}, "indices": 51, "material": 6}]}]}